<svg version="1.1" id="svg18" width="1024" height="1024" viewBox="0 0 1024 1024" sodipodi:docname="rawi_icon.svg" inkscape:version="1.2.2 (b0a8486541, 2022-12-01)" xmlns:inkscape="http://www.inkscape.org/namespaces/inkscape" xmlns:sodipodi="http://sodipodi.sourceforge.net/DTD/sodipodi-0.dtd" xmlns="http://www.w3.org/2000/svg" xmlns:svg="http://www.w3.org/2000/svg"><defs id="defs22" /><sodipodi:namedview id="namedview20" pagecolor="#505050" bordercolor="#eeeeee" borderopacity="1" inkscape:showpageshadow="0" inkscape:pageopacity="0" inkscape:pagecheckerboard="0" inkscape:deskcolor="#505050" showgrid="false" inkscape:zoom="0.27252619" inkscape:cx="23.850918" inkscape:cy="-23.850918" inkscape:window-width="1920" inkscape:window-height="1014" inkscape:window-x="0" inkscape:window-y="0" inkscape:window-maximized="1" inkscape:current-layer="g28"><inkscape:page x="0" y="0" id="page24" width="1024" height="1024" /><inkscape:grid type="xygrid" id="grid1361" snapvisiblegridlinesonly="true" /></sodipodi:namedview><g id="g26" inkscape:groupmode="layer" inkscape:label="Page 1" transform="matrix(1.3333333,0,0,-1.3333333,0,1113.88)"><g id="g28" transform="scale(0.1)"><rect style="fill:#9edfe0;fill-opacity:1;stroke-width:18.3479;image-rendering:auto" id="rect404" width="7909.1367" height="7917.2949" x="-78.631378" y="-8454.8408" transform="scale(1,-1)" /><g id="g1359" transform="matrix(2.7495297,0,0,2.7495297,-8545.3109,-8143.108)"><path d="m 5889.95,4196.59 c -2.43,-93.91 -124.4,-166.93 -272.43,-163.09 -148.02,3.83 -266.05,83.07 -263.62,176.98 2.43,93.9 124.4,166.92 272.43,163.09 148.02,-3.83 266.05,-83.07 263.62,-176.98" style="fill:#f09ab9;fill-opacity:1;fill-rule:nonzero;stroke:none" id="path50" /><path d="m 3663.34,4254.26 c -2.43,-93.91 -124.4,-166.93 -272.42,-163.09 -148.03,3.83 -266.05,83.07 -263.62,176.98 2.43,93.9 124.4,166.92 272.42,163.09 148.03,-3.83 266.06,-83.07 263.62,-176.98" style="fill:#f09ab9;fill-opacity:1;fill-rule:nonzero;stroke:none" id="path52" /><path d="m 5223.33,4620.32 c -2.41,-92.94 -53.2,-167.01 -113.44,-165.45 -60.24,1.56 -107.13,78.16 -104.72,171.1 2.4,92.93 53.19,167.01 113.44,165.45 60.24,-1.56 107.13,-78.17 104.72,-171.1" style="fill:#112d39;fill-opacity:1;fill-rule:nonzero;stroke:none" id="path54" /><path d="m 3793.88,4657.34 c -2.4,-92.94 44.48,-169.54 104.73,-171.1 60.24,-1.56 111.03,72.51 113.44,165.45 2.41,92.94 -44.48,169.54 -104.73,171.1 -60.24,1.56 -111.03,-72.51 -113.44,-165.45" style="fill:#112d39;fill-opacity:1;fill-rule:nonzero;stroke:none" id="path56" /><path d="m 4009.89,5583.88 c 0,0 -251.02,152.61 -396.58,-82.53" style="fill:none;stroke:#112d39;stroke-width:80;stroke-linecap:round;stroke-linejoin:miter;stroke-miterlimit:10;stroke-dasharray:none;stroke-opacity:1" id="path58" /><path d="m 4994.37,5558.38 c 0,0 258.59,139.41 391.78,-102.95" style="fill:none;stroke:#112d39;stroke-width:80;stroke-linecap:round;stroke-linejoin:miter;stroke-miterlimit:10;stroke-dasharray:none;stroke-opacity:1" id="path60" /><path d="m 4331.6,4721.25 c -6.13,-236.9 -203.15,-423.97 -440.05,-417.84 -236.9,6.14 -423.97,203.16 -417.83,440.06 6.13,236.89 203.15,423.96 440.05,417.83 236.9,-6.14 423.97,-203.16 417.83,-440.05 z" style="fill:none;stroke:#fafbf9;stroke-width:80;stroke-linecap:butt;stroke-linejoin:miter;stroke-miterlimit:10;stroke-dasharray:none;stroke-opacity:1" id="path62" /><path d="m 5570.47,4689.16 c -6.14,-236.9 -203.16,-423.97 -440.06,-417.83 -236.89,6.13 -423.96,203.15 -417.83,440.05 6.14,236.9 203.16,423.97 440.05,417.83 236.9,-6.13 423.97,-203.15 417.84,-440.05 z" style="fill:none;stroke:#fafbf9;stroke-width:80;stroke-linecap:butt;stroke-linejoin:miter;stroke-miterlimit:10;stroke-dasharray:none;stroke-opacity:1" id="path64" /><path d="m 4331.6,4721.25 c 0,0 184.72,113.02 380.98,-9.87" style="fill:none;stroke:#fafbf9;stroke-width:80;stroke-linecap:butt;stroke-linejoin:miter;stroke-miterlimit:10;stroke-dasharray:none;stroke-opacity:1" id="path66" /><path d="m 4082.45,3864.38 c 0,0 425.81,-317.12 868.12,2.88" style="fill:none;stroke:#112d39;stroke-width:80;stroke-linecap:round;stroke-linejoin:miter;stroke-miterlimit:10;stroke-dasharray:none;stroke-opacity:1" id="path68" /></g></g></g></svg>